<svg>
    <symbol id="icon-user" viewBox="0 0 512 512">
        <path d="M480-481q-66 0-108-42t-42-108q0-66 42-108t108-42q66 0 108 42t42 108q0 66-42 108t-108 42ZM160-160v-94q0-38 19-65t49-41q67-30 128.5-45T480-420q62 0 123 15.5t127.921 44.694q31.301 14.126 50.19 40.966Q800-292 800-254v94H160Zm60-60h520v-34q0-16-9.5-30.5T707-306q-64-31-117-42.5T480-360q-57 0-111 11.5T252-306q-14 7-23 21.5t-9 30.5v34Zm260-321q39 0 64.5-25.5T570-631q0-39-25.5-64.5T480-721q-39 0-64.5 25.5T390-631q0 39 25.5 64.5T480-541Zm0-90Zm0 411Z"/>
    </symbol>
    <symbol id="icon-password" viewBox="0 0 512 512">
        <path d="M80-200v-61h800v61H80Zm38-254-40-22 40-68H40v-45h78l-40-68 40-22 38 67 38-67 40 22-40 68h78v45h-78l40 68-40 22-38-67-38 67Zm324 0-40-24 40-68h-78v-45h78l-40-68 40-22 38 67 38-67 40 22-40 68h78v45h-78l40 68-40 24-38-67-38 67Zm324 0-40-24 40-68h-78v-45h78l-40-68 40-22 38 67 38-67 40 22-40 68h78v45h-78l40 68-40 24-38-67-38 67Z"/>
    </symbol>
</svg>